<?xml version="1.0" encoding="UTF-8" standalone="no"?>
<!-- Created with Inkscape (http://www.inkscape.org/) -->

<svg
   width="98.155251mm"
   height="18.61367mm"
   viewBox="0 0 98.155249 18.61367"
   version="1.1"
   id="svg1"
   xml:space="preserve"
   inkscape:version="1.3 (0e150ed6c4, 2023-07-21)"
   sodipodi:docname="logo.svg"
   inkscape:export-filename="./logo.svg"
   inkscape:export-xdpi="96"
   inkscape:export-ydpi="96"
   xmlns:inkscape="http://www.inkscape.org/namespaces/inkscape"
   xmlns:sodipodi="http://sodipodi.sourceforge.net/DTD/sodipodi-0.dtd"
   xmlns="http://www.w3.org/2000/svg"
   xmlns:svg="http://www.w3.org/2000/svg"><sodipodi:namedview
     id="namedview1"
     pagecolor="#ffffff"
     bordercolor="#000000"
     borderopacity="0.25"
     inkscape:showpageshadow="2"
     inkscape:pageopacity="0.0"
     inkscape:pagecheckerboard="0"
     inkscape:deskcolor="#d1d1d1"
     inkscape:document-units="mm"
     inkscape:zoom="1.2586501"
     inkscape:cx="310.25303"
     inkscape:cy="8.342271"
     inkscape:window-width="1366"
     inkscape:window-height="697"
     inkscape:window-x="-8"
     inkscape:window-y="-8"
     inkscape:window-maximized="1"
     inkscape:current-layer="layer1" /><defs
     id="defs1"><rect
       x="1300.7217"
       y="183.78043"
       width="796.90991"
       height="239.2314"
       id="rect2" /><rect
       x="1300.7217"
       y="183.78043"
       width="796.90991"
       height="239.2314"
       id="rect3" /></defs><g
     inkscape:label="Layer 1"
     inkscape:groupmode="layer"
     id="layer1"
     transform="translate(-273.92692,-150.34614)"><path
       id="rect3-1"
       style="fill:#00621b;stroke-width:1.20081;stroke-linecap:round;paint-order:stroke fill markers"
       d="m 308.26432,150.34614 h 63.81785 v 18.61367 h -63.81785 z" /><path
       style="font-size:57.3333px;line-height:0.8;font-family:'Times New Roman';-inkscape-font-specification:'Times New Roman, ';letter-spacing:-1.04px;white-space:pre;fill:#ffffff;stroke-width:1.2;stroke-linecap:round;paint-order:stroke fill markers"
       d="m 313.28879,164.67489 v -0.27406 h 0.37775 q 0.637,0 0.90365,-0.40738 0.16296,-0.24443 0.16296,-1.09623 v -6.48849 q 0,-0.94069 -0.2074,-1.17771 -0.28887,-0.3259 -0.85921,-0.3259 h -0.37775 v -0.27406 h 4.08864 q 2.25171,0 3.42201,0.51108 1.1777,0.51108 1.88877,1.7036 0.71847,1.19252 0.71847,2.75538 0,2.09617 -1.27399,3.50349 -1.42954,1.57028 -4.35529,1.57028 z m 2.86649,-0.72589 q 0.94068,0.2074 1.57768,0.2074 1.71841,0 2.85168,-1.20734 1.13326,-1.20733 1.13326,-3.27387 0,-2.08135 -1.13326,-3.28128 -1.13327,-1.19992 -2.91093,-1.19992 -0.66663,0 -1.51843,0.2148 z m 10.72416,-8.76983 v 3.97013 h 2.20727 q 0.8592,0 1.14807,-0.25924 0.38517,-0.34072 0.42961,-1.19993 h 0.27406 v 3.49608 h -0.27406 q -0.1037,-0.73329 -0.2074,-0.94068 -0.13332,-0.25925 -0.43701,-0.40738 -0.30368,-0.14814 -0.93327,-0.14814 h -2.20727 v 3.3109 q 0,0.66663 0.0593,0.81477 0.0593,0.14073 0.2074,0.22961 0.14814,0.0815 0.56292,0.0815 h 1.7036 q 0.8518,0 1.23696,-0.11851 0.38517,-0.11851 0.7407,-0.46664 0.45923,-0.45923 0.94068,-1.3851 h 0.29628 l -0.86661,2.51837 h -7.74027 v -0.27406 h 0.35553 q 0.35554,0 0.67404,-0.17036 0.23702,-0.11851 0.3185,-0.35554 0.0889,-0.23702 0.0889,-0.97031 v -6.52552 q 0,-0.9555 -0.19258,-1.1777 -0.26665,-0.29628 -0.88884,-0.29628 h -0.35553 v -0.27406 h 7.74027 l 0.1111,2.19986 h -0.28887 q -0.15555,-0.79254 -0.34813,-1.08882 -0.18517,-0.29627 -0.55552,-0.45182 -0.29628,-0.11111 -1.04438,-0.11111 z m 12.77588,-0.77773 v 3.47386 h -0.27406 q -0.13332,-0.99993 -0.48145,-1.59249 -0.34072,-0.59256 -0.97772,-0.94068 -0.637,-0.34813 -1.31844,-0.34813 -0.77032,0 -1.27399,0.47404 -0.50368,0.46664 -0.50368,1.06661 0,0.45923 0.3185,0.83698 0.45924,0.55552 2.18506,1.48139 1.40732,0.75551 1.9184,1.16289 0.51848,0.39998 0.79254,0.94809 0.28146,0.54812 0.28146,1.14808 0,1.14067 -0.88883,1.97025 -0.88143,0.82217 -2.27393,0.82217 -0.43701,0 -0.82218,-0.0667 -0.22961,-0.037 -0.95549,-0.26665 -0.71848,-0.23702 -0.91106,-0.23702 -0.18517,0 -0.29628,0.1111 -0.10369,0.1111 -0.15554,0.45923 h -0.27406 v -3.44423 h 0.27406 q 0.19258,1.08141 0.51848,1.62212 0.32591,0.5333 0.99254,0.88883 0.67403,0.35554 1.47398,0.35554 0.92587,0 1.45917,-0.48886 0.54071,-0.48886 0.54071,-1.15549 0,-0.37034 -0.2074,-0.7481 -0.19999,-0.37775 -0.62959,-0.70366 -0.28887,-0.22221 -1.57768,-0.94068 -1.28881,-0.72588 -1.83692,-1.15549 -0.54071,-0.4296 -0.82217,-0.94808 -0.28147,-0.51849 -0.28147,-1.14067 0,-1.08142 0.82958,-1.85915 0.82958,-0.78514 2.11098,-0.78514 0.79995,0 1.69619,0.39257 0.41479,0.18517 0.58515,0.18517 0.19258,0 0.31109,-0.1111 0.12592,-0.11851 0.19999,-0.46664 z m 5.88741,9.99939 v 0.27406 h -4.30344 v -0.27406 h 0.35554 q 0.62218,0 0.90365,-0.36294 0.17776,-0.23703 0.17776,-1.14067 v -6.48849 q 0,-0.76292 -0.0963,-1.00735 -0.0741,-0.18517 -0.30368,-0.3185 -0.32591,-0.17776 -0.68144,-0.17776 h -0.35554 v -0.27406 h 4.30344 v 0.27406 h -0.36294 q -0.61477,0 -0.89624,0.36294 -0.18517,0.23702 -0.18517,1.14067 v 6.48849 q 0,0.76291 0.0963,1.00734 0.0741,0.18518 0.31109,0.3185 0.3185,0.17777 0.67403,0.17777 z m 9.40572,-9.99939 0.25925,3.17018 h -0.25925 q -0.39257,-1.18511 -1.01475,-1.78508 -0.89624,-0.86661 -2.30356,-0.86661 -1.9184,0 -2.91834,1.51843 -0.83699,1.2814 -0.83699,3.05166 0,1.43695 0.55553,2.62206 0.55552,1.18511 1.45176,1.74063 0.90365,0.54812 1.85174,0.54812 0.55552,0 1.074,-0.14073 0.51849,-0.14074 0.99994,-0.41479 v -2.90353 q 0,-0.75551 -0.11851,-0.98512 -0.1111,-0.23703 -0.35553,-0.35554 -0.23703,-0.12592 -0.8444,-0.12592 v -0.28146 h 3.88865 v 0.28146 h -0.18517 q -0.57774,0 -0.79254,0.38517 -0.14814,0.27405 -0.14814,1.08141 v 3.07389 q -0.8518,0.45923 -1.68138,0.67403 -0.82958,0.2148 -1.84433,0.2148 -2.91093,0 -4.42195,-1.86655 -1.13327,-1.39991 -1.13327,-3.22943 0,-1.32585 0.637,-2.54059 0.75551,-1.44435 2.07395,-2.22208 1.10363,-0.64441 2.60725,-0.64441 0.54811,0 0.99253,0.0889 0.45182,0.0889 1.27399,0.39257 0.41479,0.15554 0.55552,0.15554 0.14074,0 0.23703,-0.12592 0.10369,-0.13332 0.12591,-0.51108 z m 1.16919,0.22962 h 2.72576 l 6.14036,7.53287 v -5.79224 q 0,-0.92586 -0.20739,-1.15548 -0.27406,-0.31109 -0.86662,-0.31109 h -0.34812 v -0.27406 h 3.49608 v 0.27406 h -0.35554 q -0.63699,0 -0.90364,0.38516 -0.16295,0.23702 -0.16295,1.08141 v 8.46615 h -0.26666 l -6.62181,-8.08839 v 6.1848 q 0,0.92587 0.19999,1.15549 0.28146,0.31109 0.86661,0.31109 h 0.35553 v 0.27406 h -3.49608 v -0.27406 h 0.34813 q 0.64441,0 0.91106,-0.38516 0.16295,-0.23703 0.16295,-1.08142 v -6.98475 q -0.43701,-0.51108 -0.66663,-0.67403 -0.22221,-0.16296 -0.65922,-0.30369 -0.2148,-0.0667 -0.65181,-0.0667 z"
       id="text2"
       aria-label="DESIGN" /><path
       id="rect4"
       style="fill:#ffffff;stroke-width:0.880822;stroke-linecap:round;paint-order:stroke fill markers"
       d="m 308.26432,150.34614 h -34.3374 v 18.61367 h 34.3374 z" /><path
       style="font-size:57.3333px;line-height:0.8;font-family:'Times New Roman';-inkscape-font-specification:'Times New Roman, ';letter-spacing:-1.04px;white-space:pre;fill:#00621b;stroke-width:1.2;stroke-linecap:round;paint-order:stroke fill markers"
       d="m 287.70009,154.40144 0.25924,3.17018 h -0.25924 q -0.39257,-1.18511 -1.01476,-1.78508 -0.89624,-0.86661 -2.30356,-0.86661 -1.9184,0 -2.91834,1.51843 -0.83699,1.2814 -0.83699,3.05166 0,1.43695 0.55553,2.62206 0.55552,1.18511 1.45176,1.74063 0.90365,0.54812 1.85174,0.54812 0.55552,0 1.07401,-0.14073 0.51848,-0.14074 0.99993,-0.41479 v -2.90353 q 0,-0.75551 -0.11851,-0.98512 -0.1111,-0.23703 -0.35553,-0.35554 -0.23702,-0.12592 -0.84439,-0.12592 v -0.28146 h 3.88865 v 0.28146 h -0.18518 q -0.57774,0 -0.79254,0.38517 -0.14814,0.27405 -0.14814,1.08141 v 3.07389 q -0.8518,0.45923 -1.68138,0.67403 -0.82958,0.2148 -1.84433,0.2148 -2.91093,0 -4.42195,-1.86655 -1.13326,-1.39991 -1.13326,-3.22943 0,-1.32585 0.637,-2.54059 0.7555,-1.44435 2.07394,-2.22208 1.10364,-0.64441 2.60725,-0.64441 0.54811,0 0.99253,0.0889 0.45182,0.0889 1.274,0.39257 0.41478,0.15554 0.55552,0.15554 0.14073,0 0.23702,-0.12592 0.10369,-0.13332 0.12592,-0.51108 z m 15.5683,0.22962 v 0.27406 q -0.39257,0 -0.637,0.14073 -0.24443,0.14073 -0.46664,0.52589 -0.14814,0.25924 -0.46664,1.23696 l -2.79983,8.0958 h -0.29627 l -2.28875,-6.42183 -2.27394,6.42183 h -0.26665 l -2.985,-8.34023 q -0.33331,-0.93327 -0.42219,-1.10363 -0.14814,-0.28147 -0.40738,-0.41479 -0.25184,-0.14073 -0.68885,-0.14073 v -0.27406 h 3.71829 v 0.27406 h -0.17777 q -0.39257,0 -0.59996,0.17776 -0.2074,0.17777 -0.2074,0.42961 0,0.25924 0.32591,1.19252 l 1.97765,5.63668 1.66657,-4.79229 -0.29628,-0.84439 -0.23702,-0.67404 q -0.15555,-0.37035 -0.34813,-0.65181 -0.0963,-0.14073 -0.23702,-0.23702 -0.18517,-0.13333 -0.37035,-0.19258 -0.14073,-0.0444 -0.44442,-0.0444 v -0.27406 h 3.91087 v 0.27406 h -0.26665 q -0.41479,0 -0.60736,0.17776 -0.19259,0.17777 -0.19259,0.48145 0,0.37776 0.33332,1.31844 l 1.9258,5.45892 1.911,-5.53299 q 0.3259,-0.91846 0.3259,-1.27399 0,-0.17036 -0.1111,-0.3185 -0.1037,-0.14814 -0.26665,-0.2074 -0.28146,-0.10369 -0.73329,-0.10369 v -0.27406 z"
       id="text1"
       aria-label="GW" /></g></svg>
