<?xml version="1.0" encoding="UTF-8" standalone="no"?>
<!-- Created with Inkscape (http://www.inkscape.org/) -->

<svg
   width="210.48198mm"
   height="86.497528mm"
   viewBox="0 0 210.48197 86.497526"
   version="1.1"
   id="svg1"
   xml:space="preserve"
   inkscape:version="1.3 (0e150ed6c4, 2023-07-21)"
   sodipodi:docname="logo.svg"
   inkscape:export-filename="./logo.svg"
   inkscape:export-xdpi="96"
   inkscape:export-ydpi="96"
   xmlns:inkscape="http://www.inkscape.org/namespaces/inkscape"
   xmlns:sodipodi="http://sodipodi.sourceforge.net/DTD/sodipodi-0.dtd"
   xmlns:xlink="http://www.w3.org/1999/xlink"
   xmlns="http://www.w3.org/2000/svg"
   xmlns:svg="http://www.w3.org/2000/svg"><sodipodi:namedview
     id="namedview1"
     pagecolor="#ffffff"
     bordercolor="#000000"
     borderopacity="0.25"
     inkscape:showpageshadow="2"
     inkscape:pageopacity="0.0"
     inkscape:pagecheckerboard="0"
     inkscape:deskcolor="#d1d1d1"
     inkscape:document-units="mm"
     inkscape:zoom="0.89000002"
     inkscape:cx="376.96628"
     inkscape:cy="100.5618"
     inkscape:window-width="1920"
     inkscape:window-height="1009"
     inkscape:window-x="1358"
     inkscape:window-y="-8"
     inkscape:window-maximized="1"
     inkscape:current-layer="layer1" /><defs
     id="defs1"><linearGradient
       id="linearGradient38"
       inkscape:collect="always"><stop
         style="stop-color:#004b72;stop-opacity:1;"
         offset="0"
         id="stop38" /><stop
         style="stop-color:#000000;stop-opacity:1;"
         offset="1"
         id="stop37" /></linearGradient><linearGradient
       id="linearGradient34"
       inkscape:collect="always"><stop
         style="stop-color:#000000;stop-opacity:1;"
         offset="0"
         id="stop34" /><stop
         style="stop-color:#004b72;stop-opacity:1;"
         offset="1"
         id="stop35" /></linearGradient><linearGradient
       id="linearGradient27"
       inkscape:collect="always"><stop
         style="stop-color:#00ff0f;stop-opacity:1;"
         offset="0"
         id="stop27" /><stop
         style="stop-color:#07acff;stop-opacity:1;"
         offset="1"
         id="stop28" /></linearGradient><inkscape:path-effect
       effect="spiro"
       id="path-effect17"
       is_visible="true"
       lpeversion="1" /><inkscape:path-effect
       effect="spiro"
       id="path-effect15"
       is_visible="true"
       lpeversion="1" /><inkscape:path-effect
       effect="spiro"
       id="path-effect13"
       is_visible="true"
       lpeversion="1" /><rect
       x="135.06534"
       y="-86.600716"
       width="367.05991"
       height="61.971153"
       id="rect5" /><rect
       x="1300.7217"
       y="183.78043"
       width="796.90991"
       height="239.2314"
       id="rect2" /><rect
       x="1300.7217"
       y="183.78043"
       width="796.90991"
       height="239.2314"
       id="rect3" /><rect
       x="135.06534"
       y="-86.600716"
       width="367.05991"
       height="61.971153"
       id="rect6" /><rect
       x="135.06534"
       y="-86.600716"
       width="367.05991"
       height="61.971153"
       id="rect7" /><linearGradient
       inkscape:collect="always"
       xlink:href="#linearGradient27"
       id="linearGradient28"
       x1="283.8703"
       y1="177.57346"
       x2="306.81253"
       y2="210.05148"
       gradientUnits="userSpaceOnUse"
       gradientTransform="matrix(1.3255249,0,0,1.3255249,-46.672775,-38.299751)" /><linearGradient
       inkscape:collect="always"
       xlink:href="#linearGradient27"
       id="linearGradient29"
       gradientUnits="userSpaceOnUse"
       x1="283.8703"
       y1="177.57346"
       x2="306.81253"
       y2="210.05148"
       gradientTransform="matrix(1.3255249,0,0,1.3255249,-1.8431291,-134.99178)" /><filter
       inkscape:collect="always"
       style="color-interpolation-filters:sRGB"
       id="filter29"
       x="-0.071301172"
       y="-0.05036662"
       width="1.1426023"
       height="1.1007332"><feGaussianBlur
         inkscape:collect="always"
         stdDeviation="0.68158693"
         id="feGaussianBlur29" /></filter><linearGradient
       inkscape:collect="always"
       xlink:href="#linearGradient27"
       id="linearGradient32"
       gradientUnits="userSpaceOnUse"
       gradientTransform="matrix(1.3255249,0,0,1.3255249,16.433243,-239.99188)"
       x1="283.8703"
       y1="177.57346"
       x2="306.81253"
       y2="210.05148" /><linearGradient
       inkscape:collect="always"
       xlink:href="#linearGradient34"
       id="linearGradient35"
       x1="338.32925"
       y1="194.00757"
       x2="340.01096"
       y2="246.98099"
       gradientUnits="userSpaceOnUse" /><rect
       x="135.06534"
       y="-86.600716"
       width="367.05991"
       height="61.971153"
       id="rect38" /><rect
       x="135.06534"
       y="-86.600716"
       width="367.05991"
       height="61.971153"
       id="rect38-8" /><linearGradient
       inkscape:collect="always"
       xlink:href="#linearGradient38"
       id="linearGradient43"
       gradientUnits="userSpaceOnUse"
       x1="317.95151"
       y1="-83.629616"
       x2="318.25479"
       y2="-45.307377"
       gradientTransform="matrix(1.4416199,0,0,1.4416199,-24.267783,319.92849)" /></defs><g
     inkscape:label="Layer 1"
     inkscape:groupmode="layer"
     id="layer1"
     transform="translate(-296.20978,-175.35475)"><g
       id="g43"><path
         id="path34"
         style="fill:url(#linearGradient35);stroke-width:0.399739;stroke-linecap:square;stroke-miterlimit:2;paint-order:stroke markers fill"
         d="m 375.57247,218.60353 a 30.762808,30.762808 0 0 1 -30.76281,30.76281 30.762808,30.762808 0 0 1 -30.76281,-30.76281 30.762808,30.762808 0 0 1 30.76281,-30.76281 30.762808,30.762808 0 0 1 30.76281,30.76281 z" /><path
         id="text3"
         style="font-weight:bold;font-size:20px;line-height:0.9;font-family:'DecoType Naskh';-inkscape-font-specification:'DecoType Naskh';text-align:center;letter-spacing:0px;text-anchor:middle;white-space:pre;fill:url(#linearGradient43);stroke-width:6.976;stroke-linecap:square;stroke-miterlimit:2;paint-order:stroke markers fill"
         d="m 410.80535,195.89254 c -2.24893,0 -4.10372,0.44257 -5.56457,1.32677 -1.44162,0.86497 -2.51798,2.08544 -3.22918,3.6616 -0.69197,1.57617 -1.03812,3.43098 -1.03812,5.56457 0,2.13359 0.34615,3.99814 1.03812,5.59353 0.7112,1.5954 1.78756,2.83483 3.22918,3.71901 1.46085,0.8842 3.30644,1.32676 5.53613,1.32676 2.22971,0 4.06502,-0.44256 5.50663,-1.32676 1.46084,-0.88418 2.53721,-2.11386 3.22919,-3.69003 0.7112,-1.5954 1.06709,-3.45994 1.06709,-5.59354 0,-2.1336 -0.35589,-3.98893 -1.06709,-5.5651 -0.69198,-1.59539 -1.7586,-2.82507 -3.20022,-3.69004 -1.44161,-0.8842 -3.27745,-1.32677 -5.50716,-1.32677 z m 19.98083,0.029 c -2.15282,0 -3.85378,0.51895 -5.10318,1.55692 -1.2494,1.01874 -1.87399,2.45101 -1.87399,4.29628 0,0.94186 0.16305,1.749 0.48982,2.42175 0.32677,0.67276 0.74008,1.24967 1.23985,1.73022 0.51899,0.46131 1.05743,0.85513 1.61486,1.1819 0.55742,0.30754 1.07638,0.57677 1.55692,0.80743 0.76886,0.36522 1.45141,0.71082 2.04728,1.03759 0.59587,0.30754 1.06662,0.64393 1.4126,1.00915 0.36521,0.36521 0.54776,0.80778 0.54776,1.32676 0,0.63431 -0.23076,1.16248 -0.69207,1.58536 -0.44211,0.40366 -1.20103,0.60571 -2.27745,0.60571 -1.03796,0 -2.08561,-0.17281 -3.1428,-0.5188 -1.03797,-0.36521 -2.04716,-0.75956 -3.02746,-1.18244 v 4.06559 c 1.71071,0.82652 3.65219,1.23984 5.82422,1.23984 2.42192,0 4.28647,-0.53845 5.59354,-1.61486 1.32629,-1.09563 1.98934,-2.55661 1.98934,-4.38266 0,-1.07641 -0.20205,-1.97943 -0.60571,-2.70986 -0.40366,-0.73041 -0.98003,-1.36475 -1.72967,-1.90295 -0.73042,-0.5382 -1.62424,-1.05716 -2.68143,-1.55692 -1.28784,-0.61509 -2.25857,-1.13405 -2.9121,-1.55692 -0.65354,-0.42288 -0.98019,-0.99979 -0.98019,-1.73021 0,-0.61508 0.22102,-1.11508 0.66311,-1.49951 0.44209,-0.38444 1.07644,-0.5762 1.90296,-0.5762 0.78809,0 1.55678,0.10563 2.30641,0.31706 0.74964,0.21144 1.59525,0.50938 2.5371,0.89381 l 1.41314,-3.40248 c -1.0764,-0.4613 -2.09535,-0.81668 -3.05643,-1.06655 -0.96109,-0.24989 -1.98003,-0.37501 -3.05643,-0.37501 z m -46.99676,0.28864 v 20.58599 h 4.35369 v -7.32321 h 1.87399 c 1.99904,0 3.5754,-0.31743 4.7287,-0.95175 1.17251,-0.63431 2.0089,-1.47017 2.50867,-2.50814 0.49976,-1.03796 0.74948,-2.16254 0.74948,-3.3735 0,-1.99904 -0.61537,-3.56566 -1.84555,-4.69972 -1.21097,-1.1533 -3.14269,-1.72967 -5.79526,-1.72967 z m 54.92568,0 v 3.63263 h 5.59353 v 16.95336 h 4.35368 v -16.95336 h 5.59354 v -3.63263 z m 33.70552,0 v 20.58599 h 4.3537 v -7.89994 h 2.33537 l 4.90146,7.89994 h 4.84351 l -6.05439,-8.96704 c 0.67276,-0.30755 1.29735,-0.70136 1.87399,-1.18191 0.59587,-0.49975 1.06661,-1.09563 1.4126,-1.78762 0.36521,-0.7112 0.54777,-1.53783 0.54777,-2.47969 0,-2.07593 -0.6728,-3.62305 -2.01831,-4.64179 -1.32629,-1.01874 -3.39236,-1.52794 -6.1987,-1.52794 z m -61.61527,3.31555 c 1.84528,0 3.1719,0.62459 3.97921,1.874 0.80731,1.23018 1.21088,2.92193 1.21088,5.07474 0,2.15281 -0.40357,3.85377 -1.21088,5.10317 -0.80731,1.23019 -2.14315,1.84503 -4.00765,1.84503 -1.82605,0 -3.15267,-0.61484 -3.97921,-1.84503 -0.82652,-1.2494 -1.23984,-2.95036 -1.23984,-5.10317 0,-2.15281 0.41332,-3.84456 1.23984,-5.07474 0.82654,-1.24941 2.16238,-1.874 4.00765,-1.874 z m -22.66224,0.25967 h 1.98933 c 2.3066,0 3.45989,0.99945 3.45989,2.99849 0,1.09563 -0.36512,1.89302 -1.09554,2.39279 -0.7112,0.48054 -1.68193,0.72105 -2.91211,0.72105 h -1.44157 z m 88.63121,0 h 1.32622 c 1.40318,0 2.44109,0.21127 3.11384,0.63414 0.67275,0.40366 1.00915,1.09542 1.00915,2.07571 0,0.94186 -0.31743,1.65312 -0.95175,2.13366 -0.61508,0.48053 -1.64324,0.72105 -3.08486,0.72105 h -1.4126 z m -19.29894,5.76468 v 3.63316 h 10.04702 v -3.63316 z m -41.75301,15.0921 -7.26581,20.67238 h 4.69974 l 1.4995,-4.90146 h 7.49596 l 1.49952,4.90146 h 4.69973 l -7.29477,-20.67238 z m -31.85999,0.0864 v 20.586 h 3.89231 v -9.57222 c 0,-0.69198 -0.0189,-1.48016 -0.0574,-2.36435 -0.0385,-0.8842 -0.0769,-1.71084 -0.11535,-2.4797 -0.0384,-0.76886 -0.0672,-1.34523 -0.0864,-1.72967 h 0.11534 l 4.95886,16.14594 h 4.00764 l 5.30545,-16.11697 h 0.11534 c -0.0192,0.38443 -0.048,0.96082 -0.0864,1.72968 -0.0192,0.74963 -0.0485,1.54756 -0.0869,2.39331 -0.0192,0.84576 -0.0284,1.59548 -0.0284,2.24901 v 9.74497 h 4.06505 v -20.586 h -5.93958 l -5.16058,15.74248 h -0.0869 l -4.87247,-15.74248 z m 47.08367,0 v 20.586 h 4.3537 v -7.35218 l 1.84501,-1.32623 5.39181,8.67841 h 4.95886 l -7.23683,-11.47518 7.17943,-9.11082 h -4.84405 l -5.56457,7.00614 c -0.28832,0.40365 -0.57651,0.80722 -0.86483,1.21088 l -0.86483,1.21087 v -9.42789 z m 19.14443,0 v 20.586 h 11.85018 v -3.60367 h -7.4965 v -5.30543 h 6.97771 v -3.57523 h -6.97771 v -4.52644 h 7.4965 v -3.57523 z m 16.14646,0 v 20.586 h 4.35369 v -7.89995 h 2.33538 l 4.90146,7.89995 h 4.84351 l -6.05439,-8.96652 c 0.67275,-0.30754 1.29735,-0.70189 1.87399,-1.18243 0.59587,-0.49976 1.06661,-1.09564 1.4126,-1.78762 0.36521,-0.7112 0.54777,-1.53784 0.54777,-2.4797 0,-2.07593 -0.6728,-3.62305 -2.01831,-4.64178 -1.3263,-1.01874 -3.39236,-1.52795 -6.19871,-1.52795 z m -47.83315,3.11383 c 0.0961,0.38443 0.22124,0.83622 0.37501,1.3552 0.15377,0.51898 0.30708,1.02818 0.46085,1.52795 0.15377,0.49976 0.2789,0.91308 0.37501,1.23985 l 1.49952,4.7861 h -5.36285 l 1.47055,-4.7861 c 0.0769,-0.21143 0.18252,-0.56734 0.31707,-1.0671 0.15377,-0.51898 0.30761,-1.0569 0.46139,-1.61432 0.17299,-0.57665 0.30734,-1.05715 0.40345,-1.44158 z m 52.18684,0.4614 h 1.32622 c 1.40319,0 2.4411,0.21127 3.11385,0.63414 0.67276,0.40365 1.00915,1.09541 1.00915,2.07571 0,0.94186 -0.31743,1.65312 -0.95175,2.13366 -0.61509,0.48053 -1.64324,0.72105 -3.08487,0.72105 h -1.4126 z"
         sodipodi:nodetypes="sccsccsccsccsscsscccccscscccscssccsssssccssccccscsscsccccccccccccccccccccscscscscscscscsscscccscscscccccccccccccccccccsssccccccccsccccccccccccccccccccccccccccccccccccccccccccccscsccssccccccccscscscc" /><path
         id="rect31"
         style="fill-opacity:0.606122;stroke-width:0.3;stroke-linecap:square;stroke-miterlimit:2;paint-order:stroke markers fill;filter:url(#filter29)"
         transform="matrix(1.1479382,0.66276244,-0.66276244,1.1479382,134.22755,-199.62244)"
         d="m 285.90226,177.57346 h 18.87832 c 1.1257,0 2.03196,0.90625 2.03196,2.03196 v 28.4141 c 0,1.12571 -0.90626,2.03197 -2.03196,2.03197 h -18.87832 c -1.1257,0 -2.03196,-0.90626 -2.03196,-2.03197 v -28.4141 c 0,-1.12571 0.90626,-2.03196 2.03196,-2.03196 z" /><path
         id="rect32"
         style="fill:url(#linearGradient32);stroke:#000000;stroke-width:0.397657;stroke-linecap:square;stroke-miterlimit:2;paint-order:stroke markers fill"
         transform="rotate(30)"
         d="m 395.4038,-4.6138501 h 25.02368 c 1.49215,0 2.69342,1.2012637 2.69342,2.6934163 V 35.743171 c 0,1.492153 -1.20127,2.693417 -2.69342,2.693417 H 395.4038 c -1.49215,0 -2.69341,-1.201264 -2.69341,-2.693417 V -1.9204338 c 0,-1.4921526 1.20126,-2.6934163 2.69341,-2.6934163 z" /><path
         id="rect30"
         style="fill-opacity:0.606122;stroke-width:0.3;stroke-linecap:square;stroke-miterlimit:2;paint-order:stroke markers fill;filter:url(#filter29)"
         transform="matrix(1.2803587,0.34307109,-0.34307109,1.2803587,33.15812,-130.86909)"
         d="m 285.90226,177.57346 h 18.87832 c 1.1257,0 2.03196,0.90625 2.03196,2.03196 v 28.4141 c 0,1.12571 -0.90626,2.03197 -2.03196,2.03197 h -18.87832 c -1.1257,0 -2.03196,-0.90626 -2.03196,-2.03197 v -28.4141 c 0,-1.12571 0.90626,-2.03196 2.03196,-2.03196 z" /><path
         id="rect28"
         style="fill:url(#linearGradient29);stroke:#000000;stroke-width:0.397657;stroke-linecap:square;stroke-miterlimit:2;paint-order:stroke markers fill"
         transform="rotate(15)"
         d="m 377.12744,100.38625 h 25.02367 c 1.49216,0 2.69342,1.20127 2.69342,2.69342 v 37.6636 c 0,1.49216 -1.20126,2.69342 -2.69342,2.69342 h -25.02367 c -1.49216,0 -2.69342,-1.20126 -2.69342,-2.69342 v -37.6636 c 0,-1.49215 1.20126,-2.69342 2.69342,-2.69342 z" /><path
         id="rect29"
         style="fill-opacity:0.606122;stroke-width:0.3;stroke-linecap:square;stroke-miterlimit:2;paint-order:stroke markers fill;filter:url(#filter29)"
         transform="matrix(1.3255249,0,0,1.3255249,-46.672775,-38.299751)"
         d="m 285.90226,177.57346 h 18.87832 c 1.1257,0 2.03196,0.90625 2.03196,2.03196 v 28.4141 c 0,1.12571 -0.90626,2.03197 -2.03196,2.03197 h -18.87832 c -1.1257,0 -2.03196,-0.90626 -2.03196,-2.03197 v -28.4141 c 0,-1.12571 0.90626,-2.03196 2.03196,-2.03196 z" /><path
         id="rect27"
         style="fill:url(#linearGradient28);stroke:#000000;stroke-width:0.397657;stroke-linecap:square;stroke-miterlimit:2;paint-order:stroke markers fill"
         d="m 332.29779,197.07829 h 25.02367 c 1.49216,0 2.69342,1.20127 2.69342,2.69342 v 37.6636 c 0,1.49216 -1.20126,2.69342 -2.69342,2.69342 h -25.02367 c -1.49216,0 -2.69342,-1.20126 -2.69342,-2.69342 v -37.6636 c 0,-1.49215 1.20126,-2.69342 2.69342,-2.69342 z" /><path
         id="path11"
         style="fill-opacity:0.963265;stroke-width:1.26585;stroke-linecap:square;stroke-miterlimit:2;paint-order:stroke markers fill"
         inkscape:transform-center-x="-0.004918207"
         inkscape:transform-center-y="-1.2607704"
         transform="matrix(0.30585036,0.0066913,-0.0066913,0.30585036,305.53123,264.13164)"
         d="m 150.56179,-107.30336 -24.29629,-12.1389 -23.77367,13.13298 4.03681,-26.85827 -19.836677,-18.55179 26.791177,-4.46043 11.51393,-24.59862 12.52105,24.10158 26.95267,3.34901 -19.05274,19.35602 z" /><path
         id="path19"
         style="fill-opacity:0.797959;stroke-width:3.25878;stroke-linecap:square;stroke-miterlimit:2;paint-order:stroke markers fill"
         inkscape:transform-center-x="-0.0020472288"
         inkscape:transform-center-y="-0.52532392"
         transform="matrix(0.12743803,0.00278806,-0.00278806,0.12743803,320.64945,227.66485)"
         d="m 150.56179,-107.30336 -24.29629,-12.1389 -23.77367,13.13298 4.03681,-26.85827 -19.836677,-18.55179 26.791177,-4.46043 11.51393,-24.59862 12.52105,24.10158 26.95267,3.34901 -19.05274,19.35602 z" /><path
         id="path20"
         style="fill-opacity:0.7;stroke-width:4.70779;stroke-linecap:square;stroke-miterlimit:2;paint-order:stroke markers fill"
         inkscape:transform-center-x="-0.0014258813"
         inkscape:transform-center-y="-0.36363207"
         transform="matrix(0.08821396,0.00192992,-0.00192992,0.08821396,331.67481,215.47765)"
         d="m 150.56179,-107.30336 -24.29629,-12.1389 -23.77367,13.13298 4.03681,-26.85827 -19.836677,-18.55179 26.791177,-4.46043 11.51393,-24.59862 12.52105,24.10158 26.95267,3.34901 -19.05274,19.35602 z" /><path
         id="path18"
         style="fill-opacity:0.459184;stroke-width:6.43015;stroke-linecap:square;stroke-miterlimit:2;paint-order:stroke markers fill"
         inkscape:transform-center-x="-0.0010331953"
         inkscape:transform-center-y="-0.26623163"
         transform="matrix(0.06458525,0.001413,-0.001413,0.06458525,341.20045,214.57704)"
         d="m 150.56179,-107.30336 -24.29629,-12.1389 -23.77367,13.13298 4.03681,-26.85827 -19.836677,-18.55179 26.791177,-4.46043 11.51393,-24.59862 12.52105,24.10158 26.95267,3.34901 -19.05274,19.35602 z" /><path
         id="path21"
         style="fill-opacity:0.297959;stroke-width:8.8889;stroke-linecap:square;stroke-miterlimit:2;paint-order:stroke markers fill"
         inkscape:transform-center-x="-0.00075176834"
         inkscape:transform-center-y="-0.19258709"
         transform="matrix(0.04672041,0.00102214,-0.00102214,0.04672041,346.75882,216.62707)"
         d="m 150.56179,-107.30336 -24.29629,-12.1389 -23.77367,13.13298 4.03681,-26.85827 -19.836677,-18.55179 26.791177,-4.46043 11.51393,-24.59862 12.52105,24.10158 26.95267,3.34901 -19.05274,19.35602 z" /><path
         id="path11-7"
         style="fill:#000000;fill-opacity:0.963265;stroke:none;stroke-width:0.408016;stroke-linecap:square;stroke-miterlimit:2;stroke-dasharray:none;stroke-opacity:1;paint-order:stroke markers fill"
         inkscape:transform-center-x="-0.0051804913"
         inkscape:transform-center-y="-1.328362"
         d="m 360.01519,225.63043 -4.05853,0.58497 4.05853,3.96538 z m -30.41055,0.0199 v 4.54076 l 4.05853,-3.94619 z m 15.21624,7.07452 -3.66535,7.40399 h 7.30809 z" /></g></g></svg>
