<?xml version="1.0" encoding="UTF-8" standalone="no"?>
<!-- Created with Inkscape (http://www.inkscape.org/) -->

<svg
   width="125.4125mm"
   height="125.4125mm"
   viewBox="0 0 125.4125 125.4125"
   version="1.1"
   id="svg1"
   xml:space="preserve"
   inkscape:export-filename="user-icon.png"
   inkscape:export-xdpi="96"
   inkscape:export-ydpi="96"
   sodipodi:docname="user-icon.svg"
   inkscape:version="1.3 (0e150ed6c4, 2023-07-21)"
   xmlns:inkscape="http://www.inkscape.org/namespaces/inkscape"
   xmlns:sodipodi="http://sodipodi.sourceforge.net/DTD/sodipodi-0.dtd"
   xmlns:xlink="http://www.w3.org/1999/xlink"
   xmlns="http://www.w3.org/2000/svg"
   xmlns:svg="http://www.w3.org/2000/svg"><sodipodi:namedview
     id="namedview1"
     pagecolor="#ffffff"
     bordercolor="#000000"
     borderopacity="0.25"
     inkscape:showpageshadow="2"
     inkscape:pageopacity="0.0"
     inkscape:pagecheckerboard="0"
     inkscape:deskcolor="#d1d1d1"
     inkscape:document-units="mm"
     inkscape:zoom="0.30991864"
     inkscape:cx="1155.1419"
     inkscape:cy="379.13176"
     inkscape:window-width="1920"
     inkscape:window-height="1009"
     inkscape:window-x="1358"
     inkscape:window-y="-8"
     inkscape:window-maximized="1"
     inkscape:current-layer="layer1" /><defs
     id="defs1"><linearGradient
       id="linearGradient1"
       inkscape:collect="always"><stop
         style="stop-color:#cff5d9;stop-opacity:1;"
         offset="0"
         id="stop1" /><stop
         style="stop-color:#cff5d9;stop-opacity:0;"
         offset="1"
         id="stop2" /></linearGradient><rect
       x="65.339729"
       y="196.01919"
       width="303.30541"
       height="73.406362"
       id="rect1" /><linearGradient
       inkscape:collect="always"
       xlink:href="#linearGradient1"
       id="linearGradient2"
       x1="102.47781"
       y1="211.29039"
       x2="102.47781"
       y2="189.73401"
       gradientUnits="userSpaceOnUse" /><linearGradient
       inkscape:collect="always"
       xlink:href="#linearGradient1"
       id="linearGradient5"
       gradientUnits="userSpaceOnUse"
       x1="102.47781"
       y1="211.29039"
       x2="102.47781"
       y2="198.69806" /><rect
       x="65.339729"
       y="196.01919"
       width="303.30541"
       height="73.406362"
       id="rect7" /></defs><g
     inkscape:label="Layer 1"
     inkscape:groupmode="layer"
     id="layer1"
     transform="translate(-42.504078,-85.793751)"><circle
       style="fill:#ffffff;fill-opacity:1;stroke-width:0.999947;stroke-linecap:round;paint-order:stroke fill markers"
       id="circle3"
       cx="105.21033"
       cy="148.5"
       r="62.706249" /><circle
       style="fill:url(#linearGradient2);fill-opacity:1;stroke-width:0.999947;stroke-linecap:round;paint-order:stroke fill markers"
       id="path1"
       cx="105.21033"
       cy="148.5"
       r="62.706249" /><path
       style="fill:#70c487;fill-opacity:1"
       d="m 59.032867,190.90636 c -5.438002,-6.02484 -10.043937,-13.57449 -12.69277,-20.8049 -1.254732,-3.42499 -2.647397,-8.9213 -3.076714,-12.1426 -0.189093,-1.41883 -0.437292,-2.57969 -0.551554,-2.57969 -0.114261,0 -0.207747,-3.09562 -0.207747,-6.87917 0,-3.78354 0.09349,-6.87916 0.207747,-6.87916 0.114262,0 0.363091,-1.16086 0.552955,-2.57969 0.189863,-1.41883 0.736301,-4.1275 1.214305,-6.01927 5.021435,-19.87304 19.799876,-36.25894 39.129787,-43.385961 3.43895,-1.267955 9.139077,-2.714889 12.236183,-3.106062 1.367358,-0.172701 2.486105,-0.408974 2.486105,-0.525052 0,-0.116078 3.095626,-0.21105 6.879166,-0.21105 4.40972,0 6.87917,0.09498 6.87917,0.264583 0,0.145521 0.40356,0.264583 0.89681,0.264583 2.47794,0 9.84514,1.833015 14.57567,3.62654 12.20388,4.626958 22.41878,12.810009 29.82204,23.890129 5.0248,7.52038 8.77423,17.20169 9.79646,25.29514 0.1727,1.36736 0.40897,2.48611 0.52505,2.48611 0.11608,0 0.21105,3.09562 0.21105,6.87916 0,3.78355 -0.1021,6.87917 -0.22689,6.87917 -0.12479,0 -0.30201,0.7187 -0.39382,1.5971 -0.6244,5.97393 -3.20329,14.1631 -6.42441,20.40049 -1.47287,2.85207 -4.83758,8.00836 -6.70918,10.28158 -2.28006,2.76931 -4.51776,5.03254 -4.6333,4.68617 -0.0588,-0.1763 -0.41946,-1.27305 -0.80145,-2.43722 -4.02231,-12.25852 -13.72412,-22.71503 -25.79012,-27.79629 -3.88147,-1.63458 -10.56302,-3.2825 -13.36145,-3.29545 -0.58209,-0.003 -1.23693,-0.12032 -1.45521,-0.26138 -0.29834,-0.1928 -0.16697,-0.25849 0.52916,-0.26459 3.1554,-0.0276 9.57465,-2.79434 12.89631,-5.55829 4.23944,-3.52765 7.17647,-8.16913 8.73363,-13.80204 0.35796,-1.29489 0.46175,-2.69277 0.45827,-6.17195 -0.004,-3.87742 -0.0874,-4.78609 -0.60503,-6.58682 -2.441,-8.4909 -8.8686,-15.23924 -16.98526,-17.83283 -2.86156,-0.91438 -4.7482,-1.19948 -7.9375,-1.19948 -7.228771,0 -13.355733,2.59502 -18.424906,7.8037 -3.160395,3.24738 -5.227242,6.81773 -6.50014,11.22861 -0.527569,1.82815 -0.601417,2.66687 -0.591605,6.71911 0.01038,4.28914 0.0651,4.80561 0.742782,7.01146 2.299962,7.48632 7.092315,13.03742 14.084012,16.31384 2.266051,1.0619 5.696877,2.0747 7.028017,2.0747 0.41328,0 0.75142,0.11906 0.75142,0.26458 0,0.14552 -0.56554,0.26475 -1.25677,0.26495 -0.69122,1.9e-4 -2.209267,0.16832 -3.373434,0.3736 -9.487311,1.67295 -17.45718,5.71005 -24.290128,12.30405 -5.502064,5.30966 -9.145758,11.00722 -11.564612,18.08331 -0.53541,1.56628 -1.024952,2.89927 -1.087872,2.96219 -0.06292,0.0629 -0.825322,-0.67324 -1.694227,-1.63591 z"
       id="path2" /><circle
       style="fill:url(#linearGradient5);fill-opacity:1;stroke-width:0.999947;stroke-linecap:round;paint-order:stroke fill markers"
       id="circle2"
       cx="105.21033"
       cy="148.5"
       r="62.706249" /><text
       xml:space="preserve"
       transform="matrix(0.47890695,0,0,0.47890695,1.3021742,78.339614)"
       id="text1"
       style="font-size:18.6667px;line-height:1.1;font-family:'DejaVu Math TeX Gyre';-inkscape-font-specification:'DejaVu Math TeX Gyre';text-align:center;letter-spacing:0px;white-space:pre;shape-inside:url(#rect1);display:inline;fill:#70c487;fill-opacity:1;stroke-width:1.13386;stroke-linecap:square;stroke-miterlimit:2;paint-order:stroke markers fill"><tspan
         x="159.95302"
         y="211.73689"
         id="tspan3"><tspan
           style="font-weight:bold;font-family:Arial;-inkscape-font-specification:'Arial Bold'"
           id="tspan2">CLICK HERE&#10;</tspan></tspan><tspan
         x="162.19977"
         y="232.57352"
         id="tspan5"><tspan
           style="font-weight:bold;font-family:Arial;-inkscape-font-specification:'Arial Bold'"
           id="tspan4">TO UPLOAD</tspan></tspan></text></g></svg>
